<?xml version="1.0" encoding="UTF-8"?>
<svg id="Layer_2" data-name="Layer 2" xmlns="http://www.w3.org/2000/svg" xmlns:xlink="http://www.w3.org/1999/xlink" viewBox="0 0 323.81 323.9">
  <defs>
    <style>
      .cls-1 {
        fill: url(#radial-gradient-2);
      }

      .cls-2 {
        fill: url(#radial-gradient);
      }
    </style>
    <radialGradient id="radial-gradient" cx="192.79" cy="147.86" fx="192.79" fy="147.86" r="168.17" gradientUnits="userSpaceOnUse">
      <stop offset="0" stop-color="#edd52d"/>
      <stop offset=".45" stop-color="#ecd22b"/>
      <stop offset=".71" stop-color="#ecca28"/>
      <stop offset=".91" stop-color="#eabc22"/>
      <stop offset="1" stop-color="#eab41f"/>
    </radialGradient>
    <radialGradient id="radial-gradient-2" cx="119.23" cy="186.16" fx="145.14" fy="135.48" r="159.83" gradientUnits="userSpaceOnUse">
      <stop offset="0" stop-color="#1e9cbf"/>
      <stop offset=".15" stop-color="#1e95b9"/>
      <stop offset=".36" stop-color="#2083ab"/>
      <stop offset=".61" stop-color="#236694"/>
      <stop offset=".88" stop-color="#263d74"/>
      <stop offset="1" stop-color="#292864"/>
    </radialGradient>
  </defs>
  <g id="Layer_1-2" data-name="Layer 1">
    <g>
      <path class="cls-2" d="M203.82,5.55C163.96-5.13,123.59.05,89.41,17.2c-8.6,4.3-16.82,9.37-24.52,15.15-7.64,27.53-.97,58.03,16.8,80.08,2.6,3.23,5.39,6.32,8.3,9.27,1.59,1.61,3.22,3.18,4.88,4.71.81.75,3.89,4.39,4.92,4.35,26.52-1.05,23.6-19.03-11.96-47.24,46.46,36.86,63.26,23.39,37.39-29.96,25.87,53.35,46.83,48.51,46.68-10.79.16,59.3,21.16,64.04,46.75,10.54-25.59,53.49-8.71,66.87,37.53,29.78-46.25,37.09-36.86,56.47,20.91,43.12-57.78,13.35-57.71,34.87.13,47.91-57.84-13.05-67.14,6.39-20.68,43.23-24.98-19.82-41.39-25.08-47.19-17.42,13.85,11.39,26.05,24.88,34.81,40.59,9.9,17.75,11.08,35.21,8.78,55.21,25.11-17.05,45.53-41.18,57.95-70.48.27-.63.52-1.25.78-1.88.26-.63.51-1.27.77-1.9.74-1.9,1.47-3.83,2.14-5.77.18-.48.35-.96.52-1.45.06-.17.12-.33.16-.5.4-1.19.78-2.39,1.17-3.58.3-.98.6-1.98.89-2.98l.02-.06c.3-1.02.59-2.06.87-3.09l.06-.24c.89-3.33,1.67-6.68,2.35-10.02.53-2.6.99-5.19,1.37-7.78.19-1.26.36-2.51.53-3.77.15-1.22.29-2.43.41-3.64.02-.08.03-.17.03-.25.13-1.21.24-2.41.33-3.62.1-1.26.19-2.51.27-3.76,4.28-74.98-44.33-145.19-119.73-165.39Z"/>
      <path class="cls-1" d="M144.74,130.87c4.65-17.37,22.51-27.68,39.88-23.03,17.37,4.65,27.68,22.51,23.03,39.88-4.66,17.38-22.51,27.68-39.88,23.03-17.37-4.65-27.68-22.5-23.03-39.88ZM237.95,275.14c-.67-5.29-1.97-10.52-3.89-15.7-.12-.27-.24-.52-.36-.79-7.1-15.31-19.44-30.31-37.74-45.85-6.72-5.69-13.96-11.19-21.93-16.64-.03-.02-.07-.04-.1-.07-9-5.62-18.93-11.12-29.78-16.51-18.8-9.33-34.95-19.21-48.42-29.62h-.01c-8.21-5.67-16.07-12.01-23.28-19.43-17.33-17.83-26.41-37.92-26.68-58.26-.86-8.31-.47-16.3.8-23.88-2.1,2.12-4.14,4.32-6.12,6.56-.43.48-.84.97-1.27,1.45-1.28,1.5-2.55,3.02-3.78,4.57-.41.51-.82,1.03-1.22,1.56-.19.23-.37.47-.55.71-.3.38-.58.75-.86,1.13-.48.61-.94,1.24-1.4,1.87-.28.37-.55.75-.82,1.13-.89,1.24-1.77,2.49-2.63,3.76-.52.76-1.03,1.53-1.54,2.31-.99,1.53-1.96,3.06-2.9,4.62-.51.84-1.01,1.68-1.51,2.53-.43.74-.85,1.49-1.27,2.23-.23.42-.46.84-.69,1.26-.33.59-.64,1.18-.95,1.77-.12.2-.23.42-.34.62-.26.5-.52.99-.78,1.49-.43.84-.85,1.68-1.26,2.53-.37.75-.74,1.49-1.08,2.24-.11.22-.21.44-.31.67-.33.69-.66,1.39-.96,2.09-.41.9-.81,1.82-1.2,2.74-.32.75-.64,1.5-.94,2.27-.32.77-.64,1.56-.94,2.34-.19.48-.38.98-.56,1.46-.61,1.61-1.2,3.23-1.76,4.88-.29.83-.58,1.66-.84,2.5-.05.14-.1.27-.13.41-.26.79-.5,1.58-.75,2.37h0c-.25.83-.49,1.65-.72,2.47-.31,1.05-.6,2.1-.88,3.15-11.57,43.17-4.55,86.94,16.17,122.82,3.24,5.61,6.81,11.02,10.69,16.21,3.41,4.53,7.04,8.91,10.91,13.07,1.55,1.67,3.14,3.31,4.76,4.91.81.8,1.62,1.6,2.45,2.38,5.91,5.62,12.28,10.81,19.07,15.52,2.04,1.42,4.11,2.79,6.21,4.1.71.45,1.41.88,2.13,1.31,2.4,1.46,4.84,2.86,7.33,4.18.85.46,1.7.91,2.57,1.34.82.43,1.64.84,2.47,1.25.72.35,1.46.7,2.2,1.06.33.17.67.32,1,.48,3.22,1.5,6.52,2.9,9.88,4.19,1.79.7,3.6,1.35,5.43,1.99,1.83.63,3.68,1.24,5.54,1.81,1.86.58,3.74,1.12,5.64,1.63.3.08.59.16.9.23.3.09.59.16.9.23.18.06.35.11.52.14.57.14,1.16.28,1.73.42.27.07.52.14.78.18.57.15,1.16.28,1.72.4,1.19.27,2.38.52,3.57.76,1.35.27,2.7.53,4.05.76,1.35.23,2.7.45,4.04.65,3.38.52,6.74.91,10.11,1.18,1.57.15,3.14.26,4.7.34,2.4.14,4.81.22,7.19.24.09.01.19.01.28.01,1.3,0,2.6,0,3.89-.02.66,0,1.33-.02,2-.04,1.99-.05,3.97-.14,5.95-.27.66-.04,1.32-.09,1.99-.14,2.8-.21,5.59-.5,8.37-.87,1.09-.14,2.17-.29,3.25-.45,2.63-.38,5.28-.86,7.89-1.39.63-.13,1.28-.27,1.91-.4,2.28-.48,4.55-1.03,6.81-1.62.9-.23,1.8-.48,2.69-.73,6.27-1.74,12.42-3.86,18.41-6.35.96-.39,1.91-.8,2.87-1.23,2.01-.86,4.01-1.78,6-2.76.58-.29,1.17-.57,1.74-.86.04-.02.1-.04.15-.08,3.25-9.53,4.96-20.2,3.53-31.55Z"/>
    </g>
  </g>
</svg>