<?xml version="1.0" encoding="UTF-8"?>
<svg id="Layer_1" data-name="Layer 1" xmlns="http://www.w3.org/2000/svg" xmlns:xlink="http://www.w3.org/1999/xlink" viewBox="0 0 1159.94 644.49">
  <defs>
    <style>
      .cls-1 {
        fill: url(#radial-gradient-3);
      }

      .cls-2 {
        fill: url(#radial-gradient-2);
      }

      .cls-3 {
        fill: url(#radial-gradient);
      }

      .cls-4 {
        fill: #205c8d;
      }
    </style>
    <radialGradient id="radial-gradient" cx="232.76" cy="170.07" fx="232.76" fy="170.07" r="168.17" gradientUnits="userSpaceOnUse">
      <stop offset="0" stop-color="#dbb92a"/>
      <stop offset=".4" stop-color="#dbb429"/>
      <stop offset=".82" stop-color="#dca727"/>
      <stop offset="1" stop-color="#dda026"/>
    </radialGradient>
    <radialGradient id="radial-gradient-2" cx="159.2" cy="208.36" fx="185.11" fy="157.68" r="159.83" gradientUnits="userSpaceOnUse">
      <stop offset="0" stop-color="#1e9cbf"/>
      <stop offset=".15" stop-color="#1e95b9"/>
      <stop offset=".36" stop-color="#2083ab"/>
      <stop offset=".61" stop-color="#236694"/>
      <stop offset=".88" stop-color="#263d74"/>
      <stop offset="1" stop-color="#292864"/>
    </radialGradient>
    <radialGradient id="radial-gradient-3" cx="901.44" cy="58.73" fx="901.44" fy="58.73" r="32.69" gradientUnits="userSpaceOnUse">
      <stop offset="0" stop-color="#dbb92a"/>
      <stop offset=".48" stop-color="#dbb629"/>
      <stop offset=".77" stop-color="#dbae28"/>
      <stop offset="1" stop-color="#dca026"/>
      <stop offset="1" stop-color="#dda026"/>
    </radialGradient>
  </defs>
  <g>
    <path d="M137.39,422.74c-2.52-2.03-5.34-3.71-8.48-5.04-3.14-1.33-6.38-2.39-9.72-3.2l-8.39-2.17c-2.42-.6-4.8-1.39-7.16-2.36-2.35-.97-4.31-2.25-5.86-3.86-1.55-1.61-2.33-3.66-2.33-6.16,0-2.3.65-4.33,1.96-6.1,1.31-1.77,3.18-3.17,5.61-4.2,2.44-1.03,5.34-1.54,8.73-1.54,4.87,0,8.83,1.06,11.87,3.17,3.04,2.11,4.76,5.1,5.16,8.97h15.64c-.12-4.99-1.54-9.44-4.26-13.34-2.72-3.9-6.49-6.96-11.32-9.18-4.83-2.21-10.44-3.32-16.84-3.32s-11.9,1.1-16.85,3.29c-4.95,2.19-8.86,5.28-11.72,9.27s-4.29,8.64-4.29,13.95c0,6.36,2.1,11.49,6.31,15.4,4.2,3.9,10.07,6.82,17.6,8.76l10.21,2.66c3.26.8,6.11,1.74,8.54,2.81,2.43,1.07,4.33,2.36,5.68,3.89,1.35,1.53,2.02,3.46,2.02,5.8,0,2.58-.76,4.84-2.29,6.79-1.53,1.95-3.65,3.47-6.37,4.56-2.72,1.09-5.85,1.63-9.39,1.63s-6.46-.51-9.24-1.54c-2.78-1.03-5.01-2.59-6.7-4.68-1.69-2.09-2.68-4.71-2.96-7.85h-15.88c.24,5.92,1.81,10.95,4.71,15.1,2.9,4.15,6.91,7.31,12.05,9.48,5.13,2.17,11.18,3.26,18.15,3.26s13.28-1.12,18.36-3.35c5.07-2.23,8.96-5.35,11.65-9.36,2.7-4.01,4.05-8.65,4.05-13.92,0-3.9-.75-7.3-2.24-10.2-1.49-2.9-3.49-5.37-6.01-7.4Z"/>
    <path d="M207.85,437.62c0,3.22-.61,6-1.84,8.33-1.23,2.34-2.93,4.11-5.1,5.31-2.17,1.21-4.65,1.81-7.43,1.81-4.11,0-7.34-1.29-9.69-3.86-2.36-2.58-3.53-6.12-3.53-10.63v-40.52h-15.7v42.93c0,5.39.96,9.99,2.87,13.8,1.91,3.81,4.61,6.69,8.09,8.67,3.48,1.97,7.54,2.96,12.17,2.96,5.39,0,9.94-1.45,13.64-4.35,3.01-2.35,5.41-5.71,7.22-10.03l.15,13.53h14.91v-67.51h-15.76v39.55Z"/>
    <path d="M295.01,401.21c-4.19-2.66-8.9-3.99-14.13-3.99-3.99,0-7.26.68-9.81,2.02-2.56,1.35-4.58,2.95-6.07,4.8-1.49,1.85-2.64,3.58-3.44,5.19h-1.03v-11.17h-15.34v92.75h15.7v-35.93h.67c.8,1.61,1.97,3.34,3.5,5.2,1.53,1.85,3.58,3.43,6.16,4.74,2.57,1.31,5.78,1.96,9.6,1.96,5.35,0,10.13-1.36,14.34-4.08,4.21-2.72,7.52-6.67,9.93-11.87,2.42-5.19,3.62-11.49,3.62-18.9s-1.24-13.82-3.71-18.99c-2.48-5.17-5.81-9.09-9.99-11.75ZM290.79,443.15c-1.21,3.32-3,5.94-5.38,7.85-2.37,1.91-5.31,2.87-8.82,2.87s-6.33-.91-8.73-2.75c-2.39-1.83-4.21-4.4-5.43-7.7-1.23-3.3-1.84-7.15-1.84-11.53s.61-8.2,1.84-11.44c1.23-3.24,3.03-5.77,5.41-7.58,2.37-1.81,5.29-2.72,8.75-2.72s6.5.94,8.88,2.81c2.37,1.87,4.16,4.45,5.34,7.73,1.19,3.28,1.78,7.01,1.78,11.2s-.6,7.94-1.81,11.26Z"/>
    <path d="M370.32,464.7c3.92-1.51,7.19-3.62,9.81-6.34,2.61-2.72,4.47-5.89,5.56-9.51l-14.43-2.96c-.68,1.89-1.71,3.49-3.08,4.8-1.37,1.31-2.99,2.29-4.86,2.96-1.87.66-3.95.99-6.25.99-3.46,0-6.5-.74-9.12-2.23-2.62-1.49-4.65-3.7-6.1-6.64-1.3-2.64-1.98-5.84-2.12-9.54h46.98v-4.95c0-5.92-.82-11.02-2.45-15.31-1.63-4.29-3.89-7.82-6.76-10.6-2.88-2.77-6.18-4.83-9.9-6.16-3.72-1.33-7.64-1.99-11.74-1.99-6.44,0-12.05,1.48-16.81,4.44-4.77,2.96-8.45,7.06-11.05,12.29-2.59,5.23-3.89,11.33-3.89,18.29s1.32,13.16,3.95,18.36c2.64,5.19,6.4,9.22,11.29,12.08,4.89,2.86,10.74,4.29,17.54,4.29,5.03,0,9.51-.75,13.44-2.26ZM341.58,418.51c1.27-2.72,3.11-4.89,5.52-6.52,2.42-1.63,5.35-2.45,8.82-2.45s6.35.8,8.66,2.42c2.32,1.61,4.06,3.86,5.22,6.73.83,2.05,1.35,4.34,1.59,6.85h-31.62c.21-2.54.8-4.89,1.8-7.03Z"/>
    <path d="M443.68,412.02v-14.43c-.77-.12-1.69-.22-2.78-.3-1.08-.08-2.07-.12-2.96-.12-3.86,0-7.3,1.06-10.33,3.17-3.02,2.11-5.13,5.12-6.34,9.03h-.72v-11.29h-15.22v67.51h15.7v-39.73c0-2.86.65-5.38,1.96-7.58,1.31-2.2,3.12-3.91,5.43-5.16,2.31-1.25,4.92-1.87,7.82-1.87,1.41,0,2.84.08,4.29.24,1.45.16,2.49.34,3.14.54Z"/>
    <path d="M548.61,463.62c5.07-2.23,8.96-5.35,11.65-9.36,2.7-4.01,4.05-8.65,4.05-13.92,0-3.9-.75-7.3-2.24-10.2-1.49-2.9-3.49-5.37-6.01-7.4-2.52-2.03-5.34-3.71-8.48-5.04-3.14-1.33-6.38-2.39-9.72-3.2l-8.39-2.17c-2.42-.6-4.8-1.39-7.16-2.36-2.35-.97-4.31-2.25-5.86-3.86-1.55-1.61-2.33-3.66-2.33-6.16,0-2.3.65-4.33,1.96-6.1,1.31-1.77,3.18-3.17,5.61-4.2,2.44-1.03,5.34-1.54,8.73-1.54,4.87,0,8.83,1.06,11.87,3.17,3.04,2.11,4.76,5.1,5.16,8.97h15.64c-.12-4.99-1.54-9.44-4.26-13.34-2.72-3.9-6.49-6.96-11.32-9.18-4.83-2.21-10.45-3.32-16.85-3.32s-11.9,1.1-16.85,3.29c-4.95,2.19-8.86,5.28-11.72,9.27-2.86,3.99-4.29,8.64-4.29,13.95,0,6.36,2.1,11.49,6.31,15.4,4.21,3.9,10.07,6.82,17.6,8.76l10.21,2.66c3.26.8,6.11,1.74,8.54,2.81,2.43,1.07,4.33,2.36,5.68,3.89,1.35,1.53,2.02,3.46,2.02,5.8,0,2.58-.76,4.84-2.29,6.79-1.53,1.95-3.65,3.47-6.37,4.56-2.72,1.09-5.85,1.63-9.39,1.63s-6.46-.51-9.24-1.54c-2.78-1.03-5.01-2.59-6.7-4.68-1.69-2.09-2.68-4.71-2.96-7.85h-15.88c.24,5.92,1.81,10.95,4.71,15.1,2.9,4.15,6.91,7.31,12.05,9.48,5.13,2.17,11.18,3.26,18.15,3.26s13.28-1.12,18.36-3.35Z"/>
    <path d="M599.18,454.89h.67c.8,1.61,1.97,3.34,3.5,5.2,1.53,1.85,3.58,3.43,6.16,4.74,2.57,1.31,5.78,1.96,9.6,1.96,5.35,0,10.14-1.36,14.34-4.08,4.2-2.72,7.52-6.67,9.93-11.87,2.42-5.19,3.62-11.49,3.62-18.9s-1.24-13.82-3.71-18.99c-2.48-5.17-5.81-9.09-9.99-11.75-4.19-2.66-8.9-3.99-14.13-3.99-3.99,0-7.26.68-9.81,2.02-2.56,1.35-4.58,2.95-6.07,4.8-1.49,1.85-2.64,3.58-3.44,5.19h-1.03v-11.17h-15.34v92.75h15.7v-35.93ZM600.72,420.45c1.23-3.24,3.03-5.77,5.41-7.58,2.37-1.81,5.29-2.72,8.75-2.72s6.5.94,8.88,2.81c2.37,1.87,4.16,4.45,5.34,7.73,1.19,3.28,1.78,7.01,1.78,11.2s-.6,7.94-1.81,11.26c-1.21,3.32-3,5.94-5.37,7.85-2.37,1.91-5.31,2.87-8.82,2.87s-6.33-.91-8.73-2.75c-2.39-1.83-4.21-4.4-5.43-7.7-1.23-3.3-1.84-7.15-1.84-11.53s.61-8.2,1.84-11.44Z"/>
    <path d="M718.42,458.37c2.61-2.72,4.47-5.89,5.56-9.51l-14.43-2.96c-.68,1.89-1.71,3.49-3.08,4.8-1.37,1.31-2.99,2.29-4.86,2.96-1.87.66-3.95.99-6.25.99-3.46,0-6.5-.74-9.12-2.23-2.62-1.49-4.65-3.7-6.1-6.64-1.3-2.64-1.98-5.84-2.12-9.54h46.98v-4.95c0-5.92-.81-11.02-2.45-15.31-1.63-4.29-3.89-7.82-6.76-10.6-2.88-2.77-6.18-4.83-9.9-6.16-3.72-1.33-7.64-1.99-11.75-1.99-6.44,0-12.05,1.48-16.81,4.44-4.77,2.96-8.45,7.06-11.05,12.29-2.6,5.23-3.89,11.33-3.89,18.29s1.32,13.16,3.95,18.36c2.64,5.19,6.4,9.22,11.29,12.08,4.89,2.86,10.74,4.29,17.54,4.29,5.03,0,9.51-.75,13.44-2.26,3.92-1.51,7.19-3.62,9.81-6.34ZM679.86,418.51c1.27-2.72,3.11-4.89,5.52-6.52,2.42-1.63,5.35-2.45,8.82-2.45s6.35.8,8.66,2.42c2.32,1.61,4.06,3.86,5.22,6.73.83,2.05,1.35,4.34,1.59,6.85h-31.62c.21-2.54.8-4.89,1.8-7.03Z"/>
    <path d="M783.01,465.46c3.24-1.01,6.14-2.45,8.69-4.32,2.56-1.87,4.69-4.14,6.4-6.79,1.71-2.66,2.93-5.68,3.65-9.06l-14.67-3.08c-.4,1.81-1.03,3.46-1.87,4.95-.85,1.49-1.88,2.76-3.11,3.81-1.23,1.05-2.64,1.85-4.23,2.42-1.59.56-3.35.85-5.28.85-3.67,0-6.7-.98-9.12-2.93-2.42-1.95-4.23-4.6-5.43-7.94-1.21-3.34-1.81-7.09-1.81-11.23s.6-8,1.81-11.32c1.21-3.32,3.02-5.96,5.43-7.91,2.42-1.95,5.45-2.93,9.12-2.93,1.89,0,3.62.27,5.19.82,1.57.54,2.96,1.32,4.17,2.32,1.21,1.01,2.22,2.22,3.05,3.65.82,1.43,1.46,3.01,1.9,4.74l14.67-3.08c-.72-3.3-1.94-6.26-3.65-8.87-1.71-2.62-3.83-4.84-6.37-6.67-2.53-1.83-5.41-3.23-8.63-4.2-3.22-.97-6.7-1.45-10.45-1.45-6.56,0-12.26,1.45-17.09,4.35-4.83,2.9-8.57,6.97-11.2,12.23-2.64,5.25-3.95,11.38-3.95,18.38s1.32,12.99,3.95,18.21c2.64,5.21,6.37,9.28,11.2,12.2,4.83,2.92,10.53,4.38,17.09,4.38,3.78,0,7.3-.5,10.54-1.51Z"/>
    <path d="M827.23,388.53c2.54,0,4.7-.85,6.49-2.54,1.79-1.69,2.69-3.72,2.69-6.1s-.9-4.4-2.69-6.07c-1.79-1.67-3.95-2.51-6.49-2.51s-4.64.84-6.43,2.51c-1.79,1.67-2.69,3.71-2.69,6.13s.9,4.35,2.69,6.04c1.79,1.69,3.94,2.54,6.43,2.54Z"/>
    <rect x="819.38" y="398.07" width="15.7" height="67.51"/>
    <path d="M901.85,402.12c-2.7-1.77-5.67-3.03-8.91-3.77-3.24-.75-6.45-1.12-9.63-1.12-4.51,0-8.69.64-12.53,1.93-3.85,1.29-7.16,3.23-9.93,5.83-2.78,2.6-4.83,5.89-6.16,9.87l14.55,2.96c.56-1.49,1.45-2.88,2.66-4.17,1.21-1.29,2.77-2.33,4.68-3.14,1.91-.8,4.17-1.21,6.79-1.21s4.74.41,6.49,1.24c1.75.82,3.07,2.01,3.95,3.56.89,1.55,1.33,3.43,1.33,5.65v.3c0,1.53-.57,2.66-1.72,3.38-1.15.72-2.95,1.25-5.4,1.57-2.46.32-5.64.71-9.54,1.15-3.3.32-6.48.87-9.54,1.63-3.06.77-5.81,1.89-8.24,3.38-2.44,1.49-4.37,3.48-5.8,5.98-1.43,2.5-2.14,5.66-2.14,9.48,0,4.43.98,8.15,2.96,11.17,1.97,3.02,4.67,5.31,8.09,6.86,3.42,1.55,7.27,2.32,11.53,2.32,3.54,0,6.61-.49,9.21-1.48,2.59-.99,4.77-2.3,6.52-3.93,1.75-1.63,3.13-3.39,4.13-5.28h.61v9.3h15.03v-45.1c0-4.51-.83-8.25-2.47-11.23-1.65-2.98-3.83-5.35-6.52-7.12ZM895.27,441.37c0,2.5-.66,4.8-1.96,6.91-1.31,2.11-3.14,3.81-5.49,5.1-2.36,1.29-5.16,1.93-8.42,1.93-2.22,0-4.18-.34-5.89-1.03-1.71-.68-3.06-1.68-4.04-2.99-.99-1.31-1.48-2.93-1.48-4.86,0-2.09.53-3.79,1.6-5.1,1.07-1.31,2.55-2.33,4.44-3.05,1.89-.72,4-1.25,6.34-1.57,1-.12,2.24-.28,3.71-.48,1.47-.2,2.96-.44,4.47-.72,1.51-.28,2.88-.6,4.11-.97,1.23-.36,2.1-.74,2.63-1.15v7.97Z"/>
    <rect x="932.35" y="375.61" width="15.7" height="89.97"/>
    <rect x="969.73" y="398.07" width="15.7" height="67.51"/>
    <path d="M977.58,371.32c-2.5,0-4.64.84-6.43,2.51-1.79,1.67-2.68,3.71-2.68,6.13s.89,4.35,2.68,6.04c1.79,1.69,3.94,2.54,6.43,2.54s4.7-.85,6.49-2.54c1.79-1.69,2.69-3.72,2.69-6.1s-.9-4.4-2.69-6.07c-1.79-1.67-3.95-2.51-6.49-2.51Z"/>
    <path d="M1035.14,453.41c-1.19.18-2.14.27-2.87.27-2.37,0-4.09-.57-5.13-1.72-1.05-1.15-1.57-2.95-1.57-5.4v-36.17h13.04v-12.32h-13.04v-16.06h-15.7v16.06h-9.6v12.32h9.6v37.5c0,5.96,1.73,10.55,5.2,13.77,3.46,3.22,8.43,4.83,14.91,4.83,1.65,0,3.38-.11,5.19-.33s3.58-.59,5.31-1.12l-2.47-12.14c-.72.16-1.68.33-2.87.51Z"/>
    <path d="M1103.36,398.07l-12.74,36.71c-1.45,4.31-2.72,8.63-3.8,12.95-.39,1.56-.79,3.15-1.18,4.74-.36-1.58-.72-3.16-1.06-4.71-.93-4.31-2.11-8.63-3.56-12.98l-12.32-36.71h-16.79l25.48,67.75-.97,4.29c-.53,2.58-1.41,4.54-2.66,5.89-1.25,1.35-2.8,2.15-4.65,2.42-1.85.26-3.97.09-6.34-.51l-1.87-.48-3.68,12.26c1.05.44,2.51.83,4.38,1.15,1.87.32,3.91.48,6.13.48,4.06,0,7.59-.67,10.57-1.99,2.98-1.33,5.49-3.27,7.55-5.83,2.05-2.56,3.76-5.63,5.13-9.21l28.98-76.2h-16.61Z"/>
    <polygon points="400.67 544.27 358.83 544.27 358.83 507.07 342.71 507.07 342.71 597.04 358.83 597.04 358.83 557.85 400.67 557.85 400.67 597.04 416.8 597.04 416.8 507.07 400.67 507.07 400.67 544.27"/>
    <path d="M485.96,533.03c-4.83-2.9-10.55-4.35-17.15-4.35s-12.26,1.45-17.09,4.35c-4.83,2.9-8.56,6.97-11.2,12.23-2.64,5.25-3.95,11.38-3.95,18.39s1.32,12.99,3.95,18.21c2.64,5.21,6.37,9.28,11.2,12.2,4.83,2.92,10.53,4.38,17.09,4.38s12.32-1.46,17.15-4.38c4.83-2.92,8.57-6.98,11.2-12.2,2.64-5.22,3.95-11.28,3.95-18.21s-1.32-13.13-3.95-18.39c-2.64-5.25-6.37-9.33-11.2-12.23ZM483.4,574.76c-1.19,3.34-3,6-5.43,7.97-2.44,1.98-5.49,2.96-9.15,2.96s-6.69-.98-9.09-2.96c-2.4-1.97-4.19-4.63-5.38-7.97-1.19-3.34-1.78-7.06-1.78-11.17s.59-7.94,1.78-11.26c1.19-3.32,2.98-5.97,5.38-7.94,2.39-1.97,5.42-2.96,9.09-2.96s6.71.99,9.15,2.96c2.43,1.97,4.25,4.63,5.43,7.97,1.19,3.34,1.78,7.08,1.78,11.23s-.59,7.83-1.78,11.17Z"/>
    <path d="M554.02,558.57l-11.47-2.42c-3.42-.73-5.88-1.73-7.37-3.02-1.49-1.29-2.24-2.92-2.24-4.89,0-2.29,1.12-4.17,3.35-5.64,2.23-1.47,5.02-2.2,8.36-2.2,3.66,0,6.5.81,8.51,2.45,2.01,1.63,3.4,3.63,4.17,6.01l14.01-2.78c-.89-3.5-2.46-6.55-4.74-9.15-2.28-2.6-5.25-4.62-8.94-6.07-3.68-1.45-8.08-2.17-13.19-2.17-5.39,0-10.13.85-14.22,2.54-4.09,1.69-7.28,4.07-9.57,7.12-2.29,3.06-3.44,6.68-3.44,10.87,0,4.95,1.57,9,4.71,12.14,3.14,3.14,7.89,5.39,14.25,6.76l11.53,2.47c3.1.68,5.39,1.66,6.88,2.93,1.49,1.27,2.23,2.87,2.23,4.8,0,2.29-1.14,4.22-3.41,5.77-2.28,1.55-5.34,2.33-9.21,2.33s-6.91-.82-9.27-2.45c-2.36-1.63-4-4.12-4.92-7.46l-14.67,2.78c.77,4.07,2.43,7.53,4.98,10.39,2.56,2.86,5.83,5.03,9.81,6.52,3.98,1.49,8.57,2.23,13.77,2.23,5.67,0,10.7-.91,15.06-2.75,4.37-1.83,7.78-4.37,10.23-7.61,2.46-3.24,3.68-6.99,3.68-11.26,0-4.75-1.55-8.64-4.65-11.66-3.1-3.02-7.85-5.21-14.25-6.58Z"/>
    <path d="M640.94,532.67c-4.19-2.66-8.9-3.98-14.13-3.98-3.99,0-7.26.67-9.81,2.02-2.56,1.35-4.58,2.95-6.07,4.8-1.49,1.85-2.64,3.58-3.44,5.19h-1.03v-11.17h-15.34v92.75h15.7v-35.93h.66c.8,1.61,1.97,3.34,3.5,5.2s3.58,3.43,6.16,4.74c2.57,1.31,5.78,1.96,9.6,1.96,5.35,0,10.14-1.36,14.34-4.08,4.21-2.72,7.52-6.67,9.93-11.87,2.42-5.19,3.62-11.49,3.62-18.9s-1.24-13.82-3.71-18.99c-2.48-5.17-5.81-9.09-9.99-11.75ZM636.72,574.61c-1.21,3.32-3,5.94-5.37,7.85-2.38,1.91-5.31,2.87-8.82,2.87s-6.33-.91-8.73-2.75c-2.39-1.83-4.21-4.4-5.43-7.7-1.23-3.3-1.84-7.15-1.84-11.53s.61-8.2,1.84-11.44,3.03-5.77,5.41-7.58c2.37-1.81,5.29-2.72,8.75-2.72s6.5.94,8.88,2.81c2.37,1.87,4.16,4.45,5.34,7.73,1.19,3.28,1.78,7.01,1.78,11.2s-.6,7.94-1.81,11.26Z"/>
    <path d="M681.01,502.78c-2.5,0-4.64.84-6.43,2.51-1.79,1.67-2.68,3.71-2.68,6.13s.89,4.35,2.68,6.04c1.79,1.69,3.94,2.54,6.43,2.54s4.7-.85,6.49-2.54c1.79-1.69,2.69-3.72,2.69-6.1s-.9-4.4-2.69-6.07c-1.79-1.67-3.95-2.51-6.49-2.51Z"/>
    <rect x="673.16" y="529.53" width="15.7" height="67.51"/>
    <path d="M738.56,584.87c-1.19.18-2.14.27-2.87.27-2.38,0-4.09-.57-5.13-1.72-1.05-1.15-1.57-2.95-1.57-5.4v-36.17h13.04v-12.32h-13.04v-16.06h-15.7v16.06h-9.6v12.32h9.6v37.5c0,5.96,1.73,10.55,5.2,13.77,3.46,3.22,8.43,4.83,14.91,4.83,1.65,0,3.38-.11,5.19-.33,1.81-.22,3.58-.59,5.31-1.12l-2.47-12.14c-.72.16-1.68.33-2.87.51Z"/>
    <path d="M805.08,533.58c-2.7-1.77-5.67-3.03-8.91-3.77-3.24-.75-6.45-1.12-9.63-1.12-4.51,0-8.69.64-12.53,1.93-3.85,1.29-7.16,3.23-9.93,5.83-2.78,2.6-4.83,5.89-6.16,9.87l14.55,2.96c.56-1.49,1.45-2.88,2.66-4.17,1.21-1.29,2.77-2.33,4.68-3.14,1.91-.8,4.17-1.21,6.79-1.21s4.74.41,6.49,1.24c1.75.82,3.07,2.01,3.95,3.56.89,1.55,1.33,3.43,1.33,5.65v.3c0,1.53-.57,2.66-1.72,3.38-1.15.73-2.95,1.25-5.4,1.57-2.46.32-5.64.71-9.54,1.15-3.3.32-6.48.87-9.54,1.63-3.06.76-5.81,1.89-8.24,3.38-2.44,1.49-4.37,3.48-5.8,5.98-1.43,2.5-2.14,5.65-2.14,9.48,0,4.43.99,8.15,2.96,11.17,1.97,3.02,4.67,5.31,8.09,6.85,3.42,1.55,7.27,2.32,11.53,2.32,3.54,0,6.61-.49,9.21-1.48,2.6-.99,4.77-2.29,6.52-3.93,1.75-1.63,3.13-3.39,4.13-5.28h.61v9.3h15.03v-45.1c0-4.51-.83-8.25-2.47-11.23-1.65-2.98-3.83-5.35-6.52-7.12ZM798.5,572.82c0,2.5-.66,4.8-1.96,6.91-1.31,2.12-3.14,3.81-5.49,5.1-2.36,1.29-5.16,1.93-8.42,1.93-2.22,0-4.18-.34-5.89-1.03-1.71-.68-3.06-1.68-4.04-2.99-.99-1.31-1.48-2.93-1.48-4.86,0-2.09.53-3.79,1.6-5.1,1.07-1.31,2.55-2.33,4.44-3.05,1.89-.73,4-1.25,6.34-1.57,1-.12,2.24-.28,3.71-.48,1.47-.2,2.96-.44,4.47-.73,1.51-.28,2.88-.6,4.11-.97,1.23-.36,2.1-.74,2.63-1.15v7.97Z"/>
    <rect x="835.58" y="507.07" width="15.7" height="89.97"/>
  </g>
  <g>
    <g>
      <path class="cls-3" d="M243.79,27.76c-39.86-10.68-80.23-5.5-114.41,11.65-8.6,4.3-16.82,9.37-24.52,15.15-7.64,27.53-.97,58.03,16.8,80.08,2.6,3.23,5.39,6.32,8.3,9.27,1.59,1.61,3.22,3.18,4.88,4.71.81.75,3.89,4.39,4.92,4.35,26.52-1.05,23.6-19.03-11.96-47.24,46.46,36.86,63.26,23.39,37.39-29.96,25.87,53.35,46.83,48.51,46.68-10.79.16,59.3,21.16,64.04,46.75,10.54-25.59,53.49-8.71,66.87,37.53,29.78-46.25,37.09-36.86,56.47,20.91,43.12-57.78,13.35-57.71,34.87.13,47.91-57.84-13.05-67.14,6.39-20.68,43.23-24.98-19.82-41.39-25.08-47.19-17.42,13.85,11.39,26.05,24.88,34.81,40.59,9.9,17.75,11.08,35.21,8.78,55.21,25.11-17.05,45.53-41.18,57.95-70.48.27-.63.52-1.25.78-1.88.26-.63.51-1.27.77-1.9.74-1.9,1.47-3.83,2.14-5.77.18-.48.35-.96.52-1.45.06-.17.12-.33.16-.5.4-1.19.78-2.39,1.17-3.58.3-.98.6-1.98.89-2.98l.02-.06c.3-1.02.59-2.06.87-3.09l.06-.24c.89-3.33,1.67-6.68,2.35-10.02.53-2.6.99-5.19,1.37-7.78.19-1.26.36-2.51.53-3.77.15-1.22.29-2.43.41-3.64.02-.08.03-.17.03-.25.13-1.21.24-2.41.33-3.62.1-1.26.19-2.51.27-3.76,4.28-74.98-44.33-145.19-119.73-165.39Z"/>
      <path class="cls-2" d="M184.71,153.08c4.65-17.37,22.51-27.68,39.88-23.03,17.37,4.65,27.68,22.51,23.03,39.88-4.66,17.38-22.51,27.68-39.88,23.03-17.37-4.65-27.68-22.5-23.03-39.88ZM277.92,297.35c-.67-5.29-1.97-10.52-3.89-15.7-.12-.27-.24-.52-.36-.79-7.1-15.31-19.44-30.31-37.74-45.85-6.72-5.69-13.96-11.19-21.93-16.64-.03-.02-.07-.04-.1-.07-9-5.62-18.93-11.12-29.78-16.51-18.8-9.33-34.95-19.21-48.42-29.62h-.01c-8.21-5.67-16.07-12.01-23.28-19.43-17.33-17.83-26.41-37.92-26.68-58.26-.86-8.31-.47-16.3.8-23.88-2.1,2.12-4.14,4.32-6.12,6.56-.43.48-.84.97-1.27,1.45-1.28,1.5-2.55,3.02-3.78,4.57-.41.51-.82,1.03-1.22,1.56-.19.23-.37.47-.55.71-.3.38-.58.75-.86,1.13-.48.61-.94,1.24-1.4,1.87-.28.37-.55.75-.82,1.13-.89,1.24-1.77,2.49-2.63,3.76-.52.76-1.03,1.53-1.54,2.31-.99,1.53-1.96,3.06-2.9,4.62-.51.84-1.01,1.68-1.51,2.53-.43.74-.85,1.49-1.27,2.23-.23.42-.46.84-.69,1.26-.33.59-.64,1.18-.95,1.77-.12.2-.23.42-.34.62-.26.5-.52.99-.78,1.49-.43.84-.85,1.68-1.26,2.53-.37.75-.74,1.49-1.08,2.24-.11.22-.21.44-.31.67-.33.69-.66,1.39-.96,2.09-.41.9-.81,1.82-1.2,2.74-.32.75-.64,1.5-.94,2.27-.32.77-.64,1.56-.94,2.34-.19.48-.38.98-.56,1.46-.61,1.61-1.2,3.23-1.76,4.88-.29.83-.58,1.66-.84,2.5-.05.14-.1.27-.13.41-.26.79-.5,1.58-.75,2.37h0c-.25.83-.49,1.65-.72,2.47-.31,1.05-.6,2.1-.88,3.15-11.57,43.17-4.55,86.94,16.17,122.82,3.24,5.61,6.81,11.02,10.69,16.21,3.41,4.53,7.04,8.91,10.91,13.07,1.55,1.67,3.14,3.31,4.76,4.91.81.8,1.62,1.6,2.45,2.38,5.91,5.62,12.28,10.81,19.07,15.52,2.04,1.42,4.11,2.79,6.21,4.1.71.45,1.41.88,2.13,1.31,2.4,1.46,4.84,2.86,7.33,4.18.85.46,1.7.91,2.57,1.34.82.43,1.64.84,2.47,1.25.72.35,1.46.7,2.2,1.06.33.17.67.32,1,.48,3.22,1.5,6.52,2.9,9.88,4.19,1.79.7,3.6,1.35,5.43,1.99,1.83.63,3.68,1.24,5.54,1.81,1.86.58,3.74,1.12,5.64,1.63.3.08.59.16.9.23.3.09.59.16.9.23.18.06.35.11.52.14.57.14,1.16.28,1.73.42.27.07.52.14.78.18.57.15,1.16.28,1.72.4,1.19.27,2.38.52,3.57.76,1.35.27,2.7.53,4.05.76,1.35.23,2.7.45,4.04.65,3.38.52,6.74.91,10.11,1.18,1.57.15,3.14.26,4.7.34,2.4.14,4.81.22,7.19.24.09.01.19.01.28.01,1.3,0,2.6,0,3.89-.02.66,0,1.33-.02,2-.04,1.99-.05,3.97-.14,5.95-.27.66-.04,1.32-.09,1.99-.14,2.8-.21,5.59-.5,8.37-.87,1.09-.14,2.17-.29,3.25-.45,2.63-.38,5.28-.86,7.89-1.39.63-.13,1.28-.27,1.91-.4,2.28-.48,4.55-1.03,6.81-1.62.9-.23,1.8-.48,2.69-.73,6.27-1.74,12.42-3.86,18.41-6.35.96-.39,1.91-.8,2.87-1.23,2.01-.86,4.01-1.78,6-2.76.58-.29,1.17-.57,1.74-.86.04-.02.1-.04.15-.08,3.25-9.53,4.96-20.2,3.53-31.55Z"/>
    </g>
    <g>
      <g>
        <path class="cls-4" d="M553.35,320.26c-27.92,0-52.41-6.1-73.48-18.32-21.08-12.21-37.45-29.32-49.12-51.34-11.68-22.01-17.52-47.65-17.52-76.91,0-22.28,3.28-42.34,9.86-60.2,6.57-17.85,16.04-33.15,28.39-45.9,12.34-12.75,27.18-22.61,44.49-29.59,17.31-6.98,36.44-10.47,57.38-10.47,28.45,0,53.15,6.04,74.09,18.12,20.94,12.08,37.25,29.06,48.92,50.94,11.68,21.88,17.52,47.45,17.52,76.7,0,22.28-3.36,42.42-10.07,60.4-6.71,17.99-16.24,33.42-28.59,46.31-12.35,12.89-27.12,22.82-44.29,29.8-17.18,6.98-36.38,10.47-57.58,10.47ZM553.35,267.11c15.84,0,29.32-3.69,40.47-11.07,11.14-7.38,19.73-18.12,25.77-32.21,6.04-14.09,9.06-30.8,9.06-50.13,0-29.52-6.58-52.41-19.73-68.65-13.16-16.24-31.68-24.36-55.57-24.36-15.57,0-28.99,3.62-40.27,10.87-11.27,7.25-19.87,17.86-25.77,31.81-5.91,13.96-8.86,30.74-8.86,50.33,0,29.26,6.57,52.14,19.73,68.65,13.15,16.51,31.54,24.76,55.16,24.76Z"/>
        <path class="cls-4" d="M808.23,320.26c-23.89,0-41.74-6.64-53.55-19.93-11.82-13.29-17.72-33.08-17.72-59.39V59.34c0-10.2,2.62-17.92,7.85-23.15,5.23-5.24,12.82-7.85,22.75-7.85s17.11,2.62,22.35,7.85c5.23,5.23,7.85,12.95,7.85,23.15v179.18c0,11.01,2.35,19.13,7.05,24.36,4.69,5.24,10.93,7.85,18.72,7.85,2.15,0,4.16-.13,6.04-.4,1.87-.26,3.89-.4,6.04-.4,4.29-.53,7.31.74,9.06,3.83,1.74,3.09,2.62,9.2,2.62,18.32,0,8.05-1.61,14.16-4.83,18.32-3.22,4.16-8.19,6.91-14.9,8.25-2.69.26-5.78.6-9.26,1.01-3.49.4-6.85.6-10.07.6Z"/>
        <path class="cls-4" d="M901.64,319.05c-9.93,0-17.52-2.89-22.75-8.66-5.23-5.77-7.85-13.89-7.85-24.36v-137.71c0-10.73,2.62-18.99,7.85-24.76,5.23-5.77,12.82-8.66,22.75-8.66s17.11,2.89,22.35,8.66c5.23,5.78,7.85,14.03,7.85,24.76v137.71c0,10.47-2.55,18.59-7.65,24.36-5.1,5.77-12.62,8.66-22.55,8.66Z"/>
        <path class="cls-4" d="M1010.35,319.45c-10.2,0-17.99-2.69-23.35-8.05-5.37-5.37-8.05-13.02-8.05-22.95v-142.94c0-9.93,2.62-17.52,7.85-22.75,5.23-5.24,12.55-7.85,21.94-7.85s17.04,2.62,22.15,7.85c5.1,5.23,7.65,12.82,7.65,22.75v20.94h-4.03c3.22-16.11,10.33-28.59,21.34-37.45,11-8.86,25.23-13.82,42.68-14.9,6.71-.53,11.88,1.14,15.5,5.03,3.62,3.89,5.57,10.27,5.84,19.13.53,8.32-1.15,14.9-5.03,19.73-3.89,4.83-10.41,7.79-19.53,8.86l-9.26.8c-15.3,1.35-26.64,5.78-34.02,13.29-7.39,7.52-11.07,18.39-11.07,32.61v74.89c0,9.93-2.62,17.58-7.85,22.95-5.23,5.37-12.82,8.05-22.75,8.05Z"/>
      </g>
      <path class="cls-1" d="M901.64,89.13c-11.27,0-19.93-2.62-25.97-7.85-6.04-5.23-9.06-12.68-9.06-22.35s3.02-17.52,9.06-22.75c6.04-5.24,14.7-7.85,25.97-7.85s19.86,2.62,25.77,7.85c5.9,5.24,8.86,12.82,8.86,22.75s-2.96,17.11-8.86,22.35c-5.91,5.24-14.5,7.85-25.77,7.85Z"/>
    </g>
  </g>
</svg>